PathFileType	4	(X/Y/Z)	C:/Users/Rosti/Documents/GitHub/TechForParalysis/Code/Model/04122019 - Marker Volunteer01/Rosti Data/New Session 103.trc	
DataRate	CameraRate	NumFrames	NumMarkers	Units	OrigDataRate	OrigDataStartFrame	OrigNumFrames	
100.00	100.00	35	14	mm	100.00	78	620	
Frame#	Time	C7			PX			T8			IJ			SC			AC			AI			TS			AA			GH			LE			ME			US			RS			
		X1	Y1	Z1	X2	Y2	Z2	X3	Y3	Z3	X4	Y4	Z4	X5	Y5	Z5	X6	Y6	Z6	X7	Y7	Z7	X8	Y8	Z8	X9	Y9	Z9	X10	Y10	Z10	X11	Y11	Z11	X12	Y12	Z12	X13	Y13	Z13	X14	Y14	Z14	

78	0.77	14.5755	1533.6	704.492	-19.6486	1293.51	469.071	9.74655	1317.65	768.029	-14.6237	1434.84	539.491	10.5877	1442.18	543.535	160.036	1472.48	606.837	95.3175	1452.56	738.114	92.5739	1334.23	769.527	210.006	1426.19	675.041	221.602	1439.15	634.633	253.391	1148.97	556.243	167.828	1131.84	520.735	283.625	896.394	432.744	351.094	932.759	423.304
79	0.78	14.5771	1533.6	704.482	-19.6551	1293.51	469.05	9.74662	1317.66	768.089	-14.6115	1434.83	539.463	10.5837	1442.17	543.507	160.04	1472.47	606.829	95.327	1452.54	738.091	92.5612	1334.2	769.51	210.005	1426.16	675.02	221.59	1439.13	634.605	253.395	1148.98	556.183	167.83	1131.82	520.7	283.581	896.377	432.727	351.051	932.729	423.277
80	0.79	14.5808	1533.6	704.469	-19.6664	1293.51	469.023	9.74572	1317.66	768.137	-14.5965	1434.82	539.432	10.5795	1442.18	543.48	160.035	1472.46	606.822	95.3313	1452.52	738.069	92.5357	1334.16	769.502	209.991	1426.14	675.001	221.576	1439.1	634.581	253.385	1148.99	556.119	167.842	1131.8	520.687	283.552	896.343	432.713	351.009	932.705	423.245
81	0.8	14.589	1533.59	704.449	-19.6782	1293.52	468.989	9.74419	1317.65	768.162	-14.579	1434.81	539.399	10.578	1442.21	543.45	160.025	1472.44	606.808	95.3326	1452.5	738.047	92.5128	1334.12	769.509	209.969	1426.11	674.979	221.564	1439.09	634.556	253.36	1149.02	556.05	167.857	1131.78	520.67	283.538	896.302	432.685	350.974	932.69	423.203
82	0.81	14.6023	1533.58	704.422	-19.6851	1293.52	468.95	9.74252	1317.64	768.16	-14.56	1434.79	539.365	10.5807	1442.23	543.415	160.017	1472.42	606.786	95.3354	1452.47	738.022	92.5036	1334.09	769.528	209.951	1426.08	674.949	221.555	1439.08	634.521	253.318	1149.03	555.977	167.86	1131.77	520.627	283.532	896.27	432.631	350.953	932.681	423.147
83	0.82	14.6182	1533.58	704.393	-19.6825	1293.52	468.912	9.74125	1317.63	768.126	-14.5414	1434.77	539.33	10.5911	1442.23	543.381	160.016	1472.4	606.757	95.343	1452.45	737.994	92.5151	1334.08	769.553	209.946	1426.06	674.91	221.551	1439.07	634.475	253.269	1149	555.904	167.84	1131.78	520.548	283.524	896.259	432.548	350.949	932.678	423.076
84	0.83	14.6328	1533.58	704.367	-19.6702	1293.52	468.876	9.741	1317.62	768.063	-14.5257	1434.76	539.294	10.61	1442.22	543.351	160.022	1472.39	606.723	95.3553	1452.44	737.962	92.5472	1334.09	769.571	209.957	1426.05	674.865	221.553	1439.06	634.423	253.235	1148.96	555.839	167.797	1131.8	520.44	283.509	896.274	432.44	350.96	932.684	422.993
85	0.84	14.6428	1533.59	704.344	-19.6555	1293.52	468.841	9.74236	1317.6	767.976	-14.5145	1434.74	539.258	10.6278	1442.21	543.323	160.03	1472.38	606.686	95.37	1452.44	737.924	92.5893	1334.11	769.573	209.982	1426.05	674.817	221.561	1439.05	634.376	253.226	1148.93	555.783	167.746	1131.83	520.323	283.492	896.311	432.317	350.98	932.703	422.9
86	0.85	14.6472	1533.61	704.324	-19.6514	1293.52	468.804	9.74583	1317.58	767.871	-14.5087	1434.73	539.221	10.628	1442.21	543.294	160.032	1472.39	606.645	95.384	1452.45	737.882	92.6255	1334.14	769.547	210.015	1426.06	674.772	221.571	1439.05	634.335	253.229	1148.93	555.732	167.709	1131.85	520.224	283.478	896.361	432.182	351.001	932.737	422.799
87	0.86	14.6457	1533.63	704.304	-19.6675	1293.53	468.763	9.75182	1317.56	767.757	-14.5079	1434.72	539.185	10.606	1442.23	543.26	160.028	1472.41	606.603	95.3956	1452.47	737.838	92.6421	1334.15	769.48	210.043	1426.08	674.731	221.575	1439.05	634.29	253.229	1148.95	555.673	167.703	1131.86	520.159	283.471	896.408	432.04	351.014	932.779	422.69
88	0.87	14.6398	1533.64	704.281	-19.7021	1293.55	468.718	9.76057	1317.55	767.639	-14.5115	1434.72	539.147	10.5776	1442.25	543.225	160.017	1472.42	606.56	95.4049	1452.47	737.795	92.633	1334.15	769.367	210.054	1426.1	674.694	221.568	1439.06	634.237	253.211	1148.97	555.591	167.735	1131.85	520.11	283.474	896.438	431.902	351.016	932.82	422.577
89	0.88	14.632	1533.65	704.255	-19.7423	1293.57	468.671	9.77224	1317.53	767.525	-14.518	1434.72	539.109	10.5615	1442.26	543.193	160.007	1472.43	606.519	95.4137	1452.47	737.754	92.6022	1334.13	769.22	210.048	1426.11	674.658	221.557	1439.06	634.186	253.173	1148.98	555.487	167.793	1131.84	520.046	283.489	896.45	431.785	351.014	932.852	422.466
90	0.89	14.6249	1533.64	704.227	-19.7729	1293.58	468.626	9.78682	1317.52	767.417	-14.5264	1434.73	539.071	10.5598	1442.25	543.163	160.002	1472.42	606.486	95.423	1452.45	737.717	92.5614	1334.1	769.065	210.031	1426.1	674.624	221.55	1439.05	634.149	253.141	1148.96	555.386	167.856	1131.84	519.941	283.515	896.458	431.701	351.016	932.87	422.363
91	0.9	14.6198	1533.62	704.2	-19.7853	1293.58	468.58	9.80411	1317.5	767.32	-14.5358	1434.75	539.033	10.5651	1442.24	543.137	160.002	1472.41	606.458	95.432	1452.43	737.683	92.524	1334.08	768.937	210.01	1426.07	674.592	221.547	1439.03	634.124	253.153	1148.94	555.313	167.905	1131.86	519.786	283.55	896.474	431.648	351.027	932.877	422.267
92	0.91	14.6172	1533.6	704.173	-19.7816	1293.57	468.533	9.82377	1317.49	767.237	-14.5462	1434.78	538.994	10.5688	1442.23	543.11	160.006	1472.4	606.433	95.4388	1452.4	737.649	92.4984	1334.06	768.854	209.996	1426.05	674.557	221.545	1439.02	634.1	253.199	1148.94	555.262	167.923	1131.9	519.589	283.59	896.501	431.606	351.045	932.882	422.178
93	0.92	14.6176	1533.59	704.147	-19.77	1293.56	468.48	9.84525	1317.48	767.171	-14.5578	1434.8	538.955	10.5691	1442.23	543.076	160.005	1472.4	606.399	95.4428	1452.39	737.612	92.4861	1334.05	768.817	209.994	1426.05	674.51	221.543	1439.03	634.065	253.246	1148.96	555.211	167.9	1131.98	519.374	283.626	896.538	431.544	351.066	932.895	422.09
94	0.93	14.6208	1533.6	704.118	-19.7613	1293.56	468.425	9.86791	1317.48	767.125	-14.571	1434.83	538.915	10.5732	1442.26	543.034	159.998	1472.42	606.351	95.4466	1452.39	737.569	92.4845	1334.05	768.805	210	1426.07	674.451	221.547	1439.05	634.021	253.278	1148.99	555.149	167.841	1132.08	519.166	283.653	896.583	431.448	351.089	932.926	421.995
95	0.94	14.6255	1533.62	704.089	-19.7645	1293.58	468.37	9.891	1317.48	767.101	-14.5857	1434.86	538.875	10.581	1442.29	542.989	159.983	1472.45	606.292	95.4548	1452.42	737.52	92.4912	1334.06	768.788	210.011	1426.1	674.386	221.557	1439.09	633.971	253.296	1149.04	555.079	167.77	1132.18	518.988	283.672	896.633	431.33	351.112	932.976	421.889
96	0.95	14.6307	1533.64	704.059	-19.7805	1293.59	468.321	9.91373	1317.48	767.103	-14.6014	1434.87	538.835	10.5863	1442.32	542.947	159.969	1472.49	606.23	95.4702	1452.44	737.465	92.504	1334.07	768.736	210.023	1426.14	674.321	221.569	1439.12	633.918	253.306	1149.08	555.01	167.714	1132.27	518.855	283.695	896.684	431.206	351.136	933.035	421.774
97	0.96	14.6368	1533.65	704.03	-19.8035	1293.59	468.277	9.93535	1317.49	767.133	-14.6176	1434.88	538.794	10.5863	1442.32	542.909	159.962	1472.51	606.171	95.4929	1452.46	737.411	92.52	1334.06	768.634	210.035	1426.17	674.258	221.579	1439.15	633.865	253.313	1149.1	554.95	167.692	1132.33	518.768	283.73	896.726	431.09	351.159	933.088	421.652
98	0.97	14.6442	1533.65	703.998	-19.8246	1293.58	468.238	9.95516	1317.5	767.192	-14.6337	1434.89	538.752	10.585	1442.31	542.874	159.964	1472.5	606.12	95.5194	1452.46	737.361	92.539	1334.04	768.493	210.042	1426.18	674.2	221.584	1439.15	633.812	253.32	1149.1	554.893	167.706	1132.33	518.717	283.781	896.755	430.995	351.184	933.124	421.527
99	0.98	14.6516	1533.64	703.964	-19.8374	1293.57	468.199	9.9726	1317.52	767.278	-14.6493	1434.88	538.708	10.5842	1442.3	542.839	159.974	1472.48	606.075	95.545	1452.44	737.314	92.559	1334.01	768.338	210.043	1426.16	674.144	221.579	1439.14	633.759	253.334	1149.09	554.833	167.748	1132.31	518.683	283.839	896.773	430.926	351.212	933.146	421.402
100	0.99	14.6565	1533.62	703.925	-19.8441	1293.56	468.153	9.98726	1317.54	767.387	-14.665	1434.87	538.662	10.5728	1442.28	542.809	159.982	1472.44	606.035	95.5641	1452.43	737.267	92.5747	1333.97	768.191	210.036	1426.14	674.088	221.565	1439.13	633.706	253.356	1149.08	554.765	167.802	1132.26	518.644	283.889	896.787	430.879	351.24	933.163	421.283
101	1	14.6579	1533.6	703.884	-19.8504	1293.57	468.098	9.99889	1317.57	767.514	-14.6813	1434.87	538.613	10.5358	1442.25	542.787	159.981	1472.42	605.994	95.5721	1452.41	737.218	92.5806	1333.93	768.061	210.024	1426.13	674.03	221.546	1439.12	633.654	253.383	1149.09	554.691	167.851	1132.22	518.584	283.934	896.802	430.842	351.264	933.187	421.173
102	1.01	14.6558	1533.59	703.841	-19.8603	1293.58	468.038	10.0074	1317.6	767.649	-14.6991	1434.86	538.562	10.4739	1442.23	542.769	159.969	1472.43	605.95	95.5707	1452.41	737.166	92.5754	1333.91	767.955	210.009	1426.13	673.972	221.531	1439.12	633.601	253.41	1149.13	554.617	167.883	1132.19	518.493	283.973	896.82	430.802	351.282	933.224	421.07
103	1.02	14.6502	1533.59	703.802	-19.8721	1293.59	467.981	10.013	1317.63	767.784	-14.7189	1434.86	538.508	10.4087	1442.21	542.745	159.948	1472.45	605.9	95.5661	1452.42	737.116	92.5617	1333.91	767.866	209.995	1426.15	673.918	221.525	1439.14	633.549	253.436	1149.18	554.547	167.89	1132.2	518.366	284.004	896.842	430.747	351.294	933.271	420.975
104	1.03	14.6417	1533.6	703.767	-19.8803	1293.59	467.93	10.0159	1317.66	767.909	-14.7408	1434.87	538.454	10.3665	1442.19	542.711	159.924	1472.49	605.848	95.5634	1452.44	737.07	92.5427	1333.91	767.786	209.984	1426.18	673.869	221.522	1439.17	633.495	253.457	1149.23	554.486	167.877	1132.23	518.214	284.021	896.869	430.672	351.302	933.322	420.886
105	1.04	14.632	1533.61	703.735	-19.8808	1293.6	467.883	10.0165	1317.69	768.016	-14.7649	1434.88	538.4	10.3525	1442.18	542.675	159.901	1472.52	605.797	95.5633	1452.45	737.029	92.5202	1333.92	767.708	209.976	1426.2	673.825	221.52	1439.2	633.444	253.463	1149.26	554.433	167.851	1132.27	518.06	284.034	896.898	430.589	351.304	933.365	420.804
106	1.05	14.6233	1533.62	703.703	-19.8757	1293.6	467.837	10.0154	1317.71	768.1	-14.7908	1434.9	538.345	10.3534	1442.17	542.638	159.883	1472.54	605.75	95.5636	1452.46	736.989	92.4944	1333.93	767.635	209.968	1426.22	673.781	221.514	1439.23	633.395	253.452	1149.27	554.387	167.824	1132.31	517.93	284.044	896.924	430.507	351.3	933.395	420.728
107	1.06	14.6164	1533.63	703.668	-19.8729	1293.6	467.79	10.0133	1317.73	768.157	-14.8181	1434.92	538.292	10.3479	1442.18	542.596	159.869	1472.54	605.704	95.5625	1452.47	736.948	92.4663	1333.95	767.575	209.958	1426.24	673.732	221.504	1439.25	633.34	253.432	1149.27	554.343	167.806	1132.33	517.841	284.048	896.941	430.43	351.294	933.417	420.658
108	1.07	14.6111	1533.63	703.628	-19.8771	1293.61	467.743	10.0107	1317.75	768.187	-14.8457	1434.95	538.24	10.3205	1442.2	542.547	159.865	1472.55	605.651	95.5603	1452.47	736.902	92.4401	1333.96	767.53	209.943	1426.26	673.674	221.487	1439.27	633.277	253.412	1149.28	554.297	167.803	1132.33	517.796	284.044	896.949	430.361	351.288	933.436	420.589
109	1.08	14.6062	1533.62	703.582	-19.8856	1293.61	467.696	10.0084	1317.77	768.189	-14.8719	1434.98	538.19	10.2783	1442.23	542.494	159.875	1472.6	605.586	95.5598	1452.47	736.851	92.4232	1333.98	767.501	209.925	1426.27	673.608	221.465	1439.29	633.202	253.404	1149.28	554.248	167.813	1132.31	517.79	284.04	896.948	430.303	351.283	933.454	420.524
110	1.09	14.5999	1533.62	703.535	-19.8953	1293.62	467.649	10.0069	1317.78	768.165	-14.895	1435.01	538.141	10.24	1442.26	542.443	159.903	1472.68	605.511	95.5653	1452.47	736.798	92.4222	1334	767.489	209.913	1426.29	673.541	221.442	1439.3	633.119	253.408	1149.27	554.195	167.826	1132.29	517.803	284.037	896.943	430.265	351.277	933.47	420.467
111	1.1	14.5914	1533.62	703.487	-19.9042	1293.61	467.602	10.0064	1317.79	768.114	-14.914	1435.04	538.093	10.2177	1442.27	542.396	159.94	1472.8	605.435	95.5786	1452.48	736.741	92.4373	1334.04	767.49	209.916	1426.3	673.478	221.422	1439.3	633.034	253.416	1149.28	554.14	167.833	1132.28	517.805	284.036	896.944	430.252	351.268	933.484	420.419
112	1.11	14.5811	1533.63	703.442	-19.9128	1293.6	467.554	10.0071	1317.79	768.037	-14.9292	1435.06	538.043	10.211	1442.28	542.348	159.966	1472.89	605.367	95.5952	1452.5	736.681	92.4617	1334.08	767.492	209.932	1426.33	673.421	221.41	1439.31	632.955	253.42	1149.29	554.082	167.823	1132.28	517.776	284.034	896.954	430.255	351.254	933.495	420.379
